-vsync is deprecated. Use -fps_mode
Passing a number to -vsync is deprecated, use a string argument as described in the manual.
[h264 @ 0x615345ff5580] Reinit context to 1280x720, pix_fmt: yuv420p
Input #0, mov,mp4,m4a,3gp,3g2,mj2, from '/var/www/html/project/media/video/original/1000131305_xEz9iS6.mp4':
  Metadata:
    major_brand     : mp42
    minor_version   : 0
    compatible_brands: mp42isom
  Duration: 00:00:37.60, start: 0.000000, bitrate: 2709 kb/s
  Stream #0:0[0x1](und): Video: h264 (High), 1 reference frame (avc1 / 0x31637661), yuv420p(tv, bt709, progressive, left), 1280x720, 2578 kb/s, 30 fps, 30 tbr, 90k tbn (default)
    Metadata:
      vendor_id       : [0][0][0][0]
  Stream #0:1[0x2](und): Audio: aac (LC) (mp4a / 0x6134706D), 48000 Hz, stereo, fltp, 128 kb/s (default)
    Metadata:
      vendor_id       : [0][0][0][0]
Input #1, png_pipe, from '/var/www/html/project/static/images/templates/logo.png':
  Duration: N/A, bitrate: N/A
  Stream #1:0: Video: png, 1 reference frame, rgba(pc, gbr/unknown/unknown), 1920x1080 [SAR 2835:2835 DAR 16:9], 25 fps, 25 tbr, 25 tbn
[h264 @ 0x61534617cb40] Reinit context to 1280x720, pix_fmt: yuv420p
Input #2, mov,mp4,m4a,3gp,3g2,mj2, from '/var/www/html/project/static/images/templates/Codino.mp4':
  Metadata:
    major_brand     : mp42
    minor_version   : 1
    compatible_brands: isommp41mp42
    creation_time   : 2021-07-11T07:02:58.000000Z
  Duration: 00:00:02.00, start: 0.000000, bitrate: 1007 kb/s
  Stream #2:0[0x1](ita): Audio: aac (LC) (mp4a / 0x6134706D), 44100 Hz, stereo, fltp, 102 kb/s (default)
    Metadata:
      creation_time   : 2021-07-11T07:02:58.000000Z
      handler_name    : Core Media Audio
      vendor_id       : [0][0][0][0]
  Stream #2:1[0x2](und): Video: h264 (High), 1 reference frame (avc1 / 0x31637661), yuv420p(tv, bt709, progressive, left), 1280x720 [SAR 1:1 DAR 16:9], 813 kb/s, 25 fps, 25 tbr, 25k tbn (default)
    Metadata:
      creation_time   : 2021-07-11T07:02:58.000000Z
      handler_name    : Core Media Video
      vendor_id       : [0][0][0][0]
[out#0/mp4 @ 0x615347e03380] Adding streams from explicit maps...
[out#0/mp4 @ 0x615347e03380] Creating output stream from an explicitly mapped complex filtergraph 0, output [v]
[vost#0:0/libx264 @ 0x615347e03d80] Created video stream from complex filtergraph 0:[concat]
[vost#0:0/libx264 @ 0x615347e03d80] 
[out#0/mp4 @ 0x615347e03380] Creating output stream from an explicitly mapped complex filtergraph 0, output [a]
[aost#0:1/aac @ 0x615347e05800] Created audio stream from complex filtergraph 0:[concat]
[aost#0:1/aac @ 0x615347e05800] 
Stream mapping:
  Stream #0:0 (h264) -> scale:default
  Stream #0:1 (aac) -> concat
  Stream #1:0 (png) -> scale:default
  Stream #2:0 (aac) -> concat
  Stream #2:1 (h264) -> scale:default
  concat -> Stream #0:0 (libx264)
  concat -> Stream #0:1 (aac)
Press [q] to stop, [?] for help
[h264 @ 0x61534617e740] Reinit context to 1280x720, pix_fmt: yuv420p
[in#1/png_pipe @ 0x615346141300] EOF while reading input
[in#1/png_pipe @ 0x615346141300] Terminating demuxer thread
[vist#1:0/png @ 0x61534605c3c0] Decoder thread received EOF packet
[vist#1:0/png @ 0x61534605c3c0] Decoder returned EOF, finishing
[vist#1:0/png @ 0x61534605c3c0] Terminating decoder thread
[h264 @ 0x615346fb5400] Reinit context to 1280x720, pix_fmt: yuv420p
[Parsed_scale_0 @ 0x615347edd8c0] w:1280 h:720 flags:'' interl:0
[Parsed_scale_2 @ 0x615347eead80] w:1280 h:720 flags:'' interl:0
[Parsed_scale_4 @ 0x615347ef8240] w:1280 h:720 flags:'' interl:0
[graph 0 input from stream 0:0 @ 0x615346047340] w:1280 h:720 pixfmt:yuv420p tb:1/90000 fr:30/1 sar:0/1
[graph 0 input from stream 1:0 @ 0x615347eda6c0] w:1920 h:1080 pixfmt:rgba tb:1/25 fr:25/1 sar:2835/2835
[graph 0 input from stream 2:1 @ 0x615346047700] w:1280 h:720 pixfmt:yuv420p tb:1/25000 fr:25/1 sar:1/1
[graph_0_in_0_1 @ 0x615347f06940] tb:1/48000 samplefmt:fltp samplerate:48000 chlayout:stereo
[graph_0_in_2_0 @ 0x615347f06cc0] tb:1/44100 samplefmt:fltp samplerate:44100 chlayout:stereo
[Parsed_concat_7 @ 0x615347f058c0] auto-inserting filter 'auto_aresample_0' between the filter 'graph_0_in_2_0' and the filter 'Parsed_concat_7'
[Parsed_scale_0 @ 0x615347edd8c0] w:1280 h:720 fmt:yuv420p sar:0/1 -> w:1280 h:720 fmt:yuv420p sar:0/1 flags:(null)
[Parsed_setsar_1 @ 0x615347eeaac0] w:1280 h:720 sar:0/1 dar:16/9 -> sar:1/1 dar:16/9
[Parsed_scale_2 @ 0x615347eead80] w:1920 h:1080 fmt:rgba sar:2835/2835 -> w:1280 h:720 fmt:yuva420p sar:1/1 flags:0x00000004
[Parsed_setsar_3 @ 0x615347ef7f80] w:1280 h:720 sar:1/1 dar:16/9 -> sar:1/1 dar:16/9
[Parsed_overlay_6 @ 0x615347f05600] main w:1280 h:720 fmt:yuv420p overlay w:1280 h:720 fmt:yuva420p
[Parsed_overlay_6 @ 0x615347f05600] [framesync @ 0x615346016028] Selected 1/90000 time base
[Parsed_overlay_6 @ 0x615347f05600] [framesync @ 0x615346016028] Sync level 2
[Parsed_scale_4 @ 0x615347ef8240] w:1280 h:720 fmt:yuv420p sar:1/1 -> w:1280 h:720 fmt:yuv420p sar:1/1 flags:(null)
[Parsed_setsar_5 @ 0x615346047440] w:1280 h:720 sar:1/1 dar:16/9 -> sar:1/1 dar:16/9
[auto_aresample_0 @ 0x615347f0b840] ch:2 chl:stereo fmt:fltp r:44100Hz -> ch:2 chl:stereo fmt:fltp r:48000Hz
[Parsed_concat_7 @ 0x615347f058c0] Video inputs have different frame rates, output will be VFR
[Parsed_scale_0 @ 0x615347edd8c0] w:1280 h:720 fmt:yuv420p sar:0/1 -> w:1280 h:720 fmt:yuv420p sar:0/1 flags:(null)
    Last message repeated 2 times
[Parsed_scale_2 @ 0x615347eead80] w:1920 h:1080 fmt:rgba sar:2835/2835 -> w:1280 h:720 fmt:yuva420p sar:1/1 flags:0x00000004
    Last message repeated 2 times
[Parsed_scale_4 @ 0x615347ef8240] w:1280 h:720 fmt:yuv420p sar:1/1 -> w:1280 h:720 fmt:yuv420p sar:1/1 flags:(null)
    Last message repeated 2 times
[libx264 @ 0x615347e04140] using SAR=1/1
[libx264 @ 0x615347e04140] MB rate (3600000000) > level limit (16711680)
[libx264 @ 0x615347e04140] using cpu capabilities: MMX2 SSE2Fast SSSE3 SSE4.2 AVX FMA3 BMI2 AVX2
[libx264 @ 0x615347e04140] profile High, level 6.2, 4:2:0, 8-bit
[libx264 @ 0x615347e04140] 264 - core 164 r3108 31e19f9 - H.264/MPEG-4 AVC codec - Copyleft 2003-2023 - http://www.videolan.org/x264.html - options: cabac=1 ref=1 deblock=1:0:0 analyse=0x3:0x113 me=hex subme=2 psy=1 psy_rd=1.00:0.00 mixed_ref=0 me_range=16 chroma_me=1 trellis=0 8x8dct=1 cqm=0 deadzone=21,11 fast_pskip=1 chroma_qp_offset=0 threads=22 lookahead_threads=5 sliced_threads=0 nr=0 decimate=1 interlaced=0 bluray_compat=0 constrained_intra=0 bframes=3 b_pyramid=2 b_adapt=1 b_bias=0 direct=1 weightb=1 open_gop=0 weightp=1 keyint=250 keyint_min=25 scenecut=40 intra_refresh=0 rc_lookahead=10 rc=crf mbtree=1 crf=18.0 qcomp=0.60 qpmin=0 qpmax=69 qpstep=4 ip_ratio=1.40 aq=1:1.00
Output #0, mp4, to '/var/www/html/project/media/video/watermarks/1000131305_xEz9iS6.mp4':
  Metadata:
    major_brand     : mp42
    minor_version   : 0
    compatible_brands: mp42isom
    encoder         : Lavf60.16.100
  Stream #0:0: Video: h264, 1 reference frame (avc1 / 0x31637661), yuv420p(tv, bt709, progressive, left), 1280x720 (0x0) [SAR 1:1 DAR 16:9], q=2-31, 1000k tbn
    Metadata:
      encoder         : Lavc60.31.102 libx264
    Side data:
      cpb: bitrate max/min/avg: 0/0/0 buffer size: 0 vbv_delay: N/A
  Stream #0:1: Audio: aac (LC) (mp4a / 0x6134706D), 48000 Hz, stereo, fltp, delay 1024, 128 kb/s
    Metadata:
      encoder         : Lavc60.31.102 aac
